<?xml version="1.0" encoding="UTF-8" standalone="no"?>
<!-- Created with Inkscape (http://www.inkscape.org/) -->

<svg
   width="63.270393mm"
   height="34.50486mm"
   viewBox="0 0 63.270394 34.50486"
   version="1.1"
   id="svg1"
   xml:space="preserve"
   xmlns="http://www.w3.org/2000/svg"
   xmlns:svg="http://www.w3.org/2000/svg"><defs
     id="defs1"><rect
       x="130.31644"
       y="710.22461"
       width="406.15289"
       height="86.877625"
       id="rect4" /><rect
       x="118.37076"
       y="639.63654"
       width="216.10809"
       height="48.868664"
       id="rect3" /><style
       type="text/css"
       id="style1">
   <![CDATA[
    .fil0 {fill:#495677}
   ]]>
  </style><rect
       x="118.37076"
       y="639.63654"
       width="216.10809"
       height="48.868664"
       id="rect3-8" /><rect
       x="130.31644"
       y="710.22461"
       width="406.15289"
       height="86.877625"
       id="rect4-5" /><rect
       x="118.37076"
       y="639.63654"
       width="216.10809"
       height="48.868664"
       id="rect3-8-4" /><rect
       x="130.31644"
       y="710.22461"
       width="406.15289"
       height="86.877625"
       id="rect4-5-0" /><rect
       x="118.37076"
       y="639.63654"
       width="216.10809"
       height="48.868664"
       id="rect3-8-4-0" /><rect
       x="130.31644"
       y="710.22461"
       width="406.15289"
       height="86.877625"
       id="rect4-5-0-4" /><rect
       x="118.37076"
       y="639.63654"
       width="216.10809"
       height="48.868664"
       id="rect3-8-4-3" /><rect
       x="130.31644"
       y="710.22461"
       width="406.15289"
       height="86.877625"
       id="rect4-5-0-3" /></defs><g
     id="g6"
     transform="translate(-73.021858,-111.92734)"><path
       class="fil0"
       d="m 118.82306,144.67246 c -2.13212,-0.80172 -4.22704,-1.76502 -6.27994,-2.82411 -2.98316,-0.51152 -3.48002,-4.10047 -6.72846,-3.8781 -2.61132,-0.66405 -5.12022,-1.72477 -7.821369,-2.01639 -2.381521,-0.15639 -4.616858,-1.07211 -6.730035,-1.53177 -1.938961,1.50141 -4.361155,1.15257 -6.605125,1.37311 -2.247525,1.31315 -4.021049,-1.0142 -6.03643,-1.49501 -1.399456,-0.14236 -5.819946,-1.26187 -2.838483,-2.50254 1.086125,-0.23102 5.318684,0.81537 2.48332,-0.41361 -2.138359,0.20061 -0.774229,-1.59754 0.452074,-0.48222 2.51409,0.89328 4.698179,0.48185 6.997922,1.76799 -0.449505,2.24762 -3.344907,-1.02721 -3.355893,0.97138 1.975187,2.14109 4.338389,-1.97596 6.000792,0.66157 1.738853,0.63292 3.314845,-1.45516 5.314698,-0.82668 1.943972,-1.34209 -1.89226,-2.74566 -2.823811,-3.63451 -0.771536,-2.81174 -3.799401,-2.86843 -6.070115,-3.67056 -2.427901,-0.20488 -4.472792,-1.5821 -6.565046,-2.68073 -1.239859,-2.15063 2.668315,-1.78718 3.641189,-0.69292 2.350049,0.34778 4.269414,2.08505 6.686655,1.76778 1.9992,0.83738 4.642878,0.40125 5.522498,2.73873 2.703862,2.21167 6.286109,2.59329 9.616289,3.10245 2.25134,-0.13004 4.04469,-3.03147 6.41647,-1.25267 2.3994,0.16126 5.29705,-1.14224 6.82021,1.51975 1.03395,2.73611 3.86717,2.25202 6.0913,1.89395 1.57971,1.20344 3.83695,1.08765 5.76028,1.23106 2.03624,0.004 6.32034,0.38185 5.72705,3.18798 -1.59681,0.61821 -3.69363,0.72882 -3.61903,2.81509 -1.54238,1.90536 -3.95117,-0.54847 -5.32125,1.80799 -1.60434,0.49362 -3.67054,0.0668 -4.28535,2.25681 -0.75168,0.42866 -1.5729,0.77938 -2.45041,0.80618 z"
       id="path1-2-9-4"
       style="clip-rule:evenodd;display:inline;fill:#0000aa;fill-rule:evenodd;stroke:#d7eef4;stroke-width:3.5;stroke-dasharray:none;stroke-opacity:1;paint-order:markers stroke fill;image-rendering:optimizeQuality;shape-rendering:geometricPrecision;text-rendering:geometricPrecision" /><g
       id="g7-3-9"
       transform="matrix(0.99699116,0,0,0.99699116,-19.076189,-8.8420742)"><path
         fill="currentColor"
         d="m 136.71062,124.87838 c 1.51489,0 2.96774,0.60179 4.03893,1.67297 1.07119,1.07119 1.67298,2.52404 1.67298,4.03893 0,1.94204 -0.971,3.65561 -2.4447,4.68376 1.80499,0.17135 3.83842,0.58261 5.87183,1.59933 3.42718,1.71356 4.56952,-0.57119 4.56952,-0.57119 0,0 -1.14234,10.28141 -7.99665,10.28141 h -6.85425 c 0,0 -5.71191,0 -5.71191,-5.7119 0,-3.42713 3.42712,-4.56951 2.28477,-6.85427 -4.56951,0 -4.56951,-3.99833 -4.56951,-3.99833 1.14234,0.57119 2.55891,0.57119 3.42712,0.17136 0.10662,-1.4426 0.75445,-2.79161 1.81371,-3.77671 1.05924,-0.98511 2.45164,-1.53352 3.89816,-1.53536"
         id="path1-4-8-2-3"
         style="clip-rule:evenodd;display:inline;fill:#ffcc00;fill-rule:evenodd;stroke:#000000;stroke-width:1.00302;stroke-linejoin:round;stroke-dasharray:none;stroke-opacity:1;paint-order:stroke markers fill;image-rendering:optimizeQuality;shape-rendering:geometricPrecision;text-rendering:geometricPrecision" /><ellipse
         style="clip-rule:evenodd;display:inline;fill:#f9f9f9;fill-opacity:1;fill-rule:evenodd;stroke:#1f232a;stroke-width:0;stroke-linejoin:round;stroke-dasharray:none;stroke-opacity:1;paint-order:markers stroke fill;image-rendering:optimizeQuality;shape-rendering:geometricPrecision;text-rendering:geometricPrecision"
         id="path4-0-6-7"
         cx="134.56516"
         cy="130.16232"
         rx="1.5776911"
         ry="1.6759583" /><ellipse
         style="clip-rule:evenodd;display:inline;fill:#28170b;fill-opacity:1;fill-rule:evenodd;stroke:#1f232a;stroke-width:0;stroke-linejoin:round;stroke-dasharray:none;stroke-opacity:1;paint-order:markers stroke fill;image-rendering:optimizeQuality;shape-rendering:geometricPrecision;text-rendering:geometricPrecision"
         id="path5-5-7-3"
         cx="134.35472"
         cy="130.49481"
         rx="0.98044598"
         ry="1.0140969" /><g
         id="g5-6-5-2"
         transform="matrix(0.11298791,0.02157207,-0.02157207,0.11298791,129.77142,119.16778)"
         style="stroke-width:4.35986;stroke-dasharray:none"><path
           id="path5-3-6-6-6"
           fill="#d4a856"
           d="m 124.00272,61.709678 0.67,-26.667 c 0,0 -9.33,-10.166 -9.33,-10.167 -2.21,-2.407 -5.02,-4.48 -7.38,-6.744 -1.63,-1.554 -3.68,-3.141 -5.47,-4.659 -1.863,-1.589 -3.563997,-3.419 -5.493997,-4.9440003 -1.279,-1.01 2.492766,0.2099509 -4.256,-1.479 -6.713,-1.68 -14.114,-3.374 -20.852,-0.883 -2.993,1.106 -5.993,2.247 -8.965,3.416 -6.042,2.3770003 -12.025,5.1650003 -17.087,9.2940003 -3.53,2.879 -8.271,6.126 -9.322,10.905 -0.742,3.369 -1.186,7.473 -1.345,10.928 l -0.5,10.833 c -6.241,-0.134 -14.771,-1.065 -21.016,-1.144 -3.05,-0.038 -6.1960003,0.058 -9.1870003,0.713 -2.686,0.591 -5.11800002,3.017 -1.35,4.327 5.399,1.876 11.1510003,3.435 16.7350003,4.657 7.694,1.684 15.306,3.941 23.09,5.163 6.268,0.984 12.483,2.12 18.719,3.168 19.503,3.277 39.309997,5.313 59.099997,5.485 6.66,0.059 13.36,-0.065 20,-0.778 3.07,-0.33 7.92,-0.424 10.53,-2.384 1.93,-1.446 0.46,-2.582 -1.25,-3.435 -4.63,-2.317 -10.32,-3.063 -15.35,-3.931 -3.33,-0.574 -6.67,-1.063 -10.02,-1.508 z"
           stroke="#000000"
           style="display:inline;fill:#502d16;stroke-width:4.35986;stroke-dasharray:none" /><path
           id="path9-4-9-5"
           d="m 35.309,47.691 c 11.333,7.667 73.831,17.167 88.831,9.834"
           stroke="#000000"
           stroke-linecap="round"
           stroke-width="3"
           fill="none"
           style="stroke-width:4.35986;stroke-dasharray:none" /></g><path
         fill="currentColor"
         d="m 132.14114,134.01742 c -4.56951,0 -4.56951,-3.99833 -4.56951,-3.99833 1.14234,0.57119 2.55891,0.57119 3.42712,0.17136 -0.0483,1.48263 1.57905,1.9704 1.14239,3.82697 z"
         id="path1-4-8-2-8-2"
         style="clip-rule:evenodd;display:inline;fill:#ff7f2a;fill-rule:evenodd;stroke:none;stroke-width:0.501509;stroke-dasharray:none;stroke-opacity:1;image-rendering:optimizeQuality;shape-rendering:geometricPrecision;text-rendering:geometricPrecision" /></g><path
       style="fill:#0000aa;fill-opacity:1;stroke:none;stroke-width:1;stroke-linecap:butt;stroke-linejoin:round;stroke-dasharray:none;stroke-opacity:1;paint-order:stroke markers fill"
       d="m 108.36658,135.21072 c 0.36741,-1.07854 1.62334,-1.35769 2.61666,-1.52792 2.2624,-0.26192 5.20202,0.67814 7.00029,1.66793 1.11878,0.69321 6.0464,0.44244 7.24881,-0.38597 1.30312,-0.61035 2.93432,-0.41455 3.63442,0.23003 3.44115,2.2618 -17.0202,5.58031 -20.50018,0.0159 z"
       id="path29-6" /></g><g
     id="layer3"
     style="clip-rule:evenodd;display:inline;fill-rule:evenodd;image-rendering:optimizeQuality;shape-rendering:geometricPrecision;text-rendering:geometricPrecision"
     transform="matrix(0.00998588,0,0,0.00998588,-109.72693,-15.863332)" /></svg>
