<?xml version="1.0" encoding="UTF-8"?>
<svg width="600" height="600" version="1.1" viewBox="0 0 600 600" xmlns="http://www.w3.org/2000/svg">
 <g transform="matrix(.99884 0 0 .99884 .69595 .48263)" fill-rule="evenodd">
  <g transform="translate(-125.64 47.692)" fill="#0b2b4d">
   <path d="m425.75-42.989c4.4175 0 48.642-1.054 66.831 11.567 16.859 14.262 4.5209 61.256 2.4541 63.353-6.0438 6.1352 127.87 2.7595 130.45 3.1321 2.5765 0.36432 57.476 57.713 51.622 60.31-22.484 9.9888-180.06 15.871-184.11 18.074-4.0449 2.2122-11.877 92.332-11.877 98.348 0 5.4897 115.7-83.423 174.63-86.107 40.303-1.8327 55.829 39.507 59.015 51.064 3.5545 12.908 13.809 47.031 10.078 100.47-1.7496 25.064-18.732 123.53-71.021 166.35-13.599 11.129-42.668 24.65-64.413 11.779-18.626-11.034-99.195-75.831-96.705-76.102 13.999-1.503 37.164 7.0148 48.131-0.45852 16.616-11.303 17.843-83.961 20.245-108.94 0.39895-4.1792-55.2 13.995-65.135 20.985-9.9376 6.9898-22.729 20.936-26.074 33.435-3.5226 13.196 2.8535 33.008-2.8217 32.985l-83.042-0.3421c-5.6752-0.0234 1.1542-19.447-2.3643-32.643-3.3398-12.499-16.132-26.445-26.066-33.435-9.9376-6.9899-66.581-25.791-66.177-21.612 2.4103 24.974 2.0542 97.551 20.658 109.59 10.982 7.4733 33.552-1.1864 47.547 0.31656 2.4976 0.27012-77.773 63.665-95.795 75.319-21.733 12.871-50.512 0.24589-64.107-10.883-52.287-42.823-69.274-141.29-71.031-166.35-3.7244-53.439 3.4236-79.513 9.8589-100.47 3.5626-11.596 18.934-52.896 59.233-51.064 58.94 2.6846 174.09 91.557 174.09 86.067 0-6.016-7.2874-96.096-11.335-98.309-3.6361-2.9405-160.86-9.0678-184.12-18.074-5.8542-2.5973 49.053-59.946 51.638-60.31 2.5757-0.37261 135.73 3.3287 129.7-2.8065-2.0695-2.0972-14.918-51.345 3.071-63.844 18.182-12.621 62.531-11.402 66.942-11.402"/>
   <path d="m425.75 373.6s-4.8206-0.14268 38.155-0.15929c8.026 0 92.921 127.79 100.25 137.56 3.1195 4.1475-22.694 13.788-30.526 13.441-14.176-0.64981-51.673-37.03-56.174-41.526-4.5075-4.5117 6.8874 54.145 3.6612 58.006-3.2096 3.8635-55.366 6.7129-55.366 6.7129s-52.136-2.8494-55.365-6.7129c-3.2179-3.8619 8.1728-62.518 3.6681-58.006-4.5089 4.4966-42.008 40.877-56.178 41.526-7.8238 0.34742-33.644-9.2935-30.53-13.441 7.3292-9.767 92.111-137.68 100.14-137.56 38.264 2e-5 38.264 0.15931 38.264 0.15931"/>
  </g>
  <g stroke-width="1.3333">
   <path d="m369.24 80.116c3e-3 0.02293 0.036 0.04387 0.0429 0.0664-7e-3 -0.02293-0.0407-0.0432-0.0429-0.0664zm0.27929 0.38866c0.0752 0.05693 0.2932 0.10346 0.39843 0.15821-0.1032-0.0548-0.32485-0.10133-0.39843-0.15821zm1.953 0.71288c0.11079 0.02533 0.28383 0.0456 0.40233 0.07026-0.11693-0.02493-0.29303-0.04493-0.40233-0.07026zm8.5856 1.0351c0.38107 0.02747 0.9128 0.04227 1.3105 0.0684-0.39291-0.0264-0.93412-0.04067-1.3105-0.0684zm96.937 0.76545c-18.13 0.28351-44.026 0.35148-66.148 0.15835 0.16376 0.0013 0.29673 0.0067 0.46092 8e-3l-165.86 270.67c4.5243 5.6833 8.267 11.92 9.8514 17.849 3.5184 13.195-2.8549 32.983 2.8202 32.983h21.855l97.002-158.29c-13.414 8.6871-22.198 14.304-22.198 12.826 0-6.0158 7.8319-96.134 11.877-98.346 1.6842-0.91672 31.662-2.6311 65.701-4.8515l44.725-73.018zm-253.43 252.17c2.4706 1.1577 4.4256 2.2044 5.6679 3.0781-1.2422-0.8737-3.1971-1.9204-5.6679-3.0781zm9.6638 6.1502c0.11053 0.0915 0.22315 0.20219 0.33396 0.29491-0.11106-0.0933-0.22309-0.20287-0.33396-0.29491zm-64.338 35.538c0.67048 5.6747 1.4522 11.242 2.3769 16.49-0.92471-5.2481-1.7064-10.815-2.3769-16.49zm57.944 49.653c-8.4445 0.31549-18.665 2.4639-27.585 2.7147l-30.209 49.292c-9.8035 7.5342-18.882 14.362-25.662 19.14 26.559-18.494 91.342-70.758 89.091-71.002-1.7493-0.18786-3.6426-0.21902-5.6365-0.14453zm-39.624 1.1504c0.20214 0.0791 0.40983 0.15056 0.61717 0.22265-0.20642-0.0733-0.41586-0.14259-0.61717-0.22265z" fill="#65339a"/>
   <path d="m270.03 420.89c-5.2385-0.0133-9e-5 -0.0363-8.8883-0.0363-8.0299-0.126-92.81 127.79-100.14 137.56-2.0585 2.7417 8.4854 7.6947 18.158 10.765z" fill="#65339a"/>
   <path d="m366.35 15.837c0.63016 0.43775 1.2141 0.93212 1.7696 1.457-0.5565-0.52455-1.1391-1.0191-1.7696-1.457zm2.2148 1.918c0.34563 0.35378 0.67593 0.72458 0.99216 1.1113-0.31722-0.38619-0.64579-0.7579-0.99216-1.1113zm2.9433 3.996c0.1822 0.32765 0.34699 0.67213 0.5156 1.0137-0.16973-0.34103-0.33229-0.68649-0.5156-1.0137zm1.6562 3.6738c0.23687 0.6471 0.45395 1.3118 0.65429 1.9921-0.20205-0.67968-0.41548-1.3458-0.65429-1.9921zm1.166 3.9276c0.41206 1.7341 0.74795 3.5326 0.97265 5.4041-0.22501-1.874-0.55675-3.6699-0.97265-5.4041zm0.97265 5.4041-131.93 215.29c-3e-3 -0.0297-8e-3 -0.0951-9e-3 -0.12493 0.24587 3.329 0.6777 8.4947 0.67772 9.2888-2e-5 0.68373-1.8024-0.10386-5.0585-2l-41.624 67.924c-0.0232-8e-3 -0.0451-0.0136-0.0684-0.0215 13.713 4.6214 27.461 9.9962 31.937 13.144 5.2212 3.674 11.201 9.288 16.214 15.585l165.86-270.67c-24.583-0.20597-44.274-1.0655-41.876-3.4999 1.4469-1.4682 8.1401-26.023 5.8709-44.923zm-143.13 126.11c0.2431 0.1328 0.5017 0.61779 0.76952 1.3476-0.26676-0.71077-0.52508-1.214-0.76952-1.3476zm0.91405 1.8242c0.2124 0.64727 0.43199 1.4485 0.65622 2.4121-0.22307-0.9425-0.44382-1.7786-0.65622-2.4121zm1.0293 4.3475c0.49438 2.4095 1.0036 5.2412 1.5293 8.7674-0.52463-3.505-1.0322-6.3788-1.5293-8.7674zm1.8066 10.709c0.56117 3.9123 1.1275 8.2345 1.6914 12.922-0.56419-4.7115-1.1258-8.9904-1.6914-12.922zm1.8925 14.608c0.38599 3.2623 0.75857 6.7294 1.1328 10.164-0.38013-3.5251-0.73791-6.8094-1.1328-10.164zm2.7714 26.385c0.46715 4.7696 0.89408 9.2278 1.2871 13.572-0.39477-4.4547-0.8046-8.5887-1.2871-13.572zm-37.898 15.33c2.6773 1.7053 5.2268 3.3367 7.7127 4.9373-2.6159-1.6852-4.8832-3.1355-7.7127-4.9373zm22.986 14.778c5.2177 3.3682 9.7335 6.2448 12.802 8.0506-3.1102-1.8296-7.4825-4.6152-12.802-8.0506zm-60.905 67.876c-0.0245 4e-3 -0.0315 0.0165-0.0547 0.0215 0.1264-0.0277 0.3755-5e-3 0.53906-0.0176-0.13484 9e-3 -0.37456-0.024-0.48437-4e-3zm1.8633 0.0156c1.2832 0.1108 3.1398 0.46449 5.2187 0.9199-2.1066-0.46761-3.9199-0.80355-5.2187-0.9199zm-2.2558 0.13476c-0.0424 0.0231-0.10666 0.0371-0.13866 0.0644 0.0319-0.0275 0.0964-0.0412 0.13866-0.0644zm9.4295 1.2265c0.60872 0.14608 1.3729 0.36942 2.0234 0.53515-0.66081-0.16993-1.4053-0.38529-2.0234-0.53515zm11.053 3.0449c0.21738 0.0651 0.44697 0.13905 0.66599 0.20507-0.22309-0.0676-0.4446-0.13854-0.66599-0.20507zm-16.428 51.196-79.266 129.35c14.284 6.4062 32.038 9.6948 46.591 1.0762 6.0633-3.5919 19.088-13.331 33.278-24.238l30.209-49.293c-5.8244 0.16365-11.12-0.44424-14.916-3.0273-8.8531-6.025-13.277-29.491-15.896-53.868zm-92.408 122.06c0.86344 0.59278 1.7569 1.1602 2.6894 1.7461-0.9359-0.57742-1.8229-1.1608-2.6894-1.7461zm4.5234 2.8301c2.6759 1.5884 5.5428 3.0761 8.617 4.455-3.0602-1.3726-5.9323-2.8901-8.617-4.455z" fill="#2744a0"/>
   <path d="m309.14 4.4374c2.5222 0.041066 5.41 0.12226 8.533 0.27147-3.1283-0.14934-6.0081-0.23057-8.533-0.27147zm8.533 0.27147c1.9814 0.094664 4.1734 0.27429 6.3124 0.43163-2.1408-0.1575-4.3295-0.33696-6.3124-0.43163zm9.949 0.68358-95.359 155.61c3.5324 2.9129 9.5248 67.47 11.113 89.043l131.93-215.29c-0.97187-8.0949-3.5574-15.172-8.9528-18.92-9.1158-6.325-24.797-9.1707-38.731-10.439zm-98.66 75.321c-0.64459 0.30998-1.7664 0.58477-3.3007 0.8281 1.5344-0.24333 2.6561-0.51812 3.3007-0.8281zm-50.128 138.5c4.5727 2.7567 8.5576 5.3168 12.853 7.9959l-144.88 236.41c-3.9051-5.6544-7.4887-11.632-10.82-17.781 9.4399 17.438 21.035 33.408 35.364 45.143 4.4912 3.6766 10.761 7.5401 17.808 10.701l79.267-129.35c-2.2937-21.353-3.2163-43.402-4.3416-55.063-0.22261-2.2999 16.51 2.2109 33.267 7.8611l41.624-67.924c-9.816-5.7164-32.903-21.561-60.15-37.987zm-177.24 116.77c0.47983 3.521 1.0652 7.3281 1.8301 11.674-0.76215-4.3146-1.3498-8.1703-1.8301-11.674zm2.1133 13.216c1.2614 6.9893 2.9093 14.826 4.9764 23.253-2.0726-8.4214-3.71-16.265-4.9764-23.253zm5.4705 25.294c0.63286 2.5207 1.3267 5.0908 2.037 7.6932-0.7111-2.5973-1.4033-5.1771-2.037-7.6932zm2.7441 10.263c0.74492 2.6554 1.5313 5.3244 2.3593 8.0389-0.82822-2.7079-1.614-5.3896-2.3593-8.0389zm3.0859 10.365c0.90808 2.9067 1.8446 5.8117 2.8515 8.7576-1.007-2.9399-1.9429-5.8566-2.8515-8.7576zm2.9355 8.9978c3.3556 9.7947 7.2928 19.697 11.824 29.381-4.5318-9.6728-8.4646-19.597-11.824-29.381zm12.545 30.939c1.319 2.7697 2.7057 5.4899 4.1288 8.2029-1.4218-2.7082-2.8107-5.4385-4.1288-8.2029z" fill="#00894d"/>
   <path d="m299.41 4.4374c-2.7191 0-20.613-0.44132-38.196 2.1582v0.00133l-35.843 58.489c1.5314 7.8971 3.3471 13.904 4.0272 14.593 1.38 1.4038-4.7338 2.2759-14.697 2.8163l-45.176 73.721c32.586 2.1089 61.024 3.7646 62.653 4.6523 0.0265 0.0147 0.0571 0.12453 0.084 0.14648l95.363-155.62c-13.869-1.2624-26.01-0.95898-28.214-0.95896zm-129.88 151.78c-10.858-0.70277-22.33-1.4893-33.684-2.3183 12.088 0.8932 22.27 1.5796 33.684 2.3183zm55.847-91.131c-1.1593-5.9788-2.1348-13.139-2.2987-20.21 0.14805 7.1621 1.1306 14.186 2.2987 20.21zm35.823-58.487c-2.6202 0.38771-5.2103 0.84539-7.7654 1.3808 2.5491-0.53189 5.1513-0.99403 7.7654-1.3808zm-8.4939 1.539c-2.5194 0.54555-4.9897 1.1497-7.3358 1.8652 2.3465-0.71276 4.8159-1.3218 7.3358-1.8652zm-7.3514 1.871c-0.5057 0.15434-0.98174 0.3293-1.4765 0.49218 0.49484-0.16228 0.97082-0.33843 1.4765-0.49218zm-4.2636 1.4688c-0.504 0.19241-0.9903 0.3947-1.4785 0.59765 0.48828-0.20248 0.97437-0.40576 1.4785-0.59765zm-4.1112 1.789c-0.38418 0.18834-0.77596 0.37-1.1465 0.5664 0.37027-0.19602 0.76255-0.37848 1.1465-0.5664zm-4.5058 2.5702c-0.67871 0.47159-1.2994 1.0122-1.8925 1.584 0.59332-0.57081 1.2134-1.112 1.8925-1.584zm-2.4198 2.1289c-0.39835 0.4213-0.77596 0.86459-1.1347 1.33 0.35905-0.46464 0.73589-0.90911 1.1347-1.33zm-1.664 2.0293c-0.41494 0.59389-0.80442 1.2148-1.164 1.8672 0.35991-0.65145 0.74838-1.2737 1.164-1.8672zm-2.9101 5.8533c-0.0908 0.25818-0.17861 0.5178-0.26367 0.78122 0.0848-0.26294 0.17302-0.52348 0.26367-0.78122zm-2.0234 9.3611c-0.0479 0.42906-0.088 0.85866-0.12693 1.2929 0.0381-0.43371 0.0799-0.86443 0.12693-1.2929zm-0.25586 3.3534c-0.10866 1.8602-0.15222 3.7386-0.12693 5.6424-0.0299-1.9018 0.0225-3.784 0.12693-5.6424zm-96.788 44.238c8.7898 0.13253 17.801 0.21739 28.523 0.30468-10.102-0.08693-20.138-0.17788-28.523-0.30468zm79.103 0.0176c-3.0567 0.09386-6.1434 0.18354-9.5662 0.24023 3.4291-0.0572 6.5036-0.14568 9.5662-0.24023zm-19.656 0.36718c-2.2017 0.01573-4.4763 0.0156-6.7401 0.02147 2.303-0.0067 4.5014-0.0053 6.7401-0.02147zm-137.78 59.609c0.76345 0.33911 1.7098 0.67228 2.7734 1.0019-1.0539-0.32909-2.0088-0.66232-2.7734-1.0019zm4.4628 1.4726c0.52172 0.14138 1.036 0.28227 1.6093 0.42187-0.56801-0.13949-1.0916-0.28039-1.6093-0.42187zm9.6463 2.0625c0.08285 0.0144 0.1686 0.0285 0.25194 0.0429-0.08285-0.0144-0.16961-0.0285-0.25194-0.0429zm8.0409 1.2226c1.879 0.26808 3.7948 0.53467 5.8319 0.7949-2.0342-0.25971-3.9556-0.52674-5.8319-0.7949zm13.424 1.7148c1.4038 0.15985 2.8841 0.31206 4.3378 0.46875-1.4517-0.1557-2.9359-0.30973-4.3378-0.46875zm30.407 2.9511c2.5311 0.2137 5.1179 0.40104 7.6931 0.60741-2.5635-0.20308-5.1748-0.39715-7.6931-0.60741zm-39.6 21.331c0.49929 0.0592 1.0038 0.1256 1.5097 0.19531-0.50615-0.0693-1.0103-0.1364-1.5097-0.19531zm5.744 0.8828c0.40406 0.0753 0.79741 0.13173 1.205 0.21287-0.40752-0.0808-0.8011-0.13794-1.205-0.21287zm5.992 1.291c17.222 4.2127 37.135 12.998 56.907 23.339-19.777-10.343-39.679-19.148-56.907-23.339zm57.045 23.411-125.4 204.62c7.026 20.541 16.492 41.766 28.991 59.865l144.88-236.41c-4.2955-2.6791-8.2806-5.2392-12.853-7.9959-11.366-6.852-23.462-13.733-35.61-20.092zm-141.98 134.1c0.10336 0.8258 0.19786 1.5792 0.31835 2.4647-0.11753-0.86179-0.21709-1.6597-0.31835-2.4647zm2.1327 14.049c0.17341 0.98872 0.385 2.0301 0.5742 3.0566-0.18626-1.0088-0.40318-2.0842-0.5742-3.0566zm3.0214 15.146c0.31145 1.4277 0.57573 2.7561 0.91404 4.2264-0.33602-1.4597-0.6044-2.8087-0.91404-4.2264zm1.2929 5.8142c0.70678 3.0153 1.4724 6.0994 2.2949 9.2595-0.82074-3.155-1.5889-6.2488-2.2949-9.2595zm2.9921 11.896c0.79701 2.9762 1.6496 5.993 2.5527 9.0583-0.90016-3.0595-1.7576-6.0874-2.5527-9.0583zm3.3554 11.791c1.1089 3.6586 2.2826 7.3518 3.5487 11.082-1.2622-3.7264-2.4425-7.4264-3.5487-11.082z" fill="#f1d934"/>
   <path d="m261.21 6.5974c-10.946 1.6181-21.77 4.3999-28.746 9.2419-12.076 8.3905-10.225 33.118-7.0974 49.249l35.843-58.491zm-46.512 75.898c-16.048 0.87062-42.499 0.82246-66.036 0.58592l-41.94 68.442c-23.779-2.1307-44.608-4.5764-54.727-7.3944 18.614 5.2825 72.893 9.2008 117.53 12.09l45.176-73.722zm-164.04 61.241c0.27995 0.0891 0.5494 0.17732 0.84959 0.26562-0.30445-0.088-0.5664-0.17692-0.84959-0.26562zm18.76 29.377c1.614 0.0735 3.2777 0.22214 4.9804 0.43357-1.6956-0.19994-3.3663-0.36007-4.9804-0.43357zm5.1737 0.45897c5.1631 0.65479 10.702 1.8996 16.457 3.5272l-90.674 147.97c-0.00787-0.10719-0.03953-0.3172-0.046874-0.42187 0.9017 12.859 5.8615 45.052 17.492 79.127l125.4-204.63c-24.435-12.789-49.093-23.211-68.629-25.563z" fill="#f36717"/>
   <path d="m148.69 83.035c-22.174-0.27281-48.069-0.68077-48.996-0.54668-2.5847 0.36431-57.491 57.712-51.636 60.309 7.6285 3.3884 31.209 6.2662 58.661 8.7262zm-57.643 94.064c-7.7277-2.1858-15.069-3.6878-21.629-3.9866-40.298-1.8326-55.669 39.467-59.232 51.063-6.4352 20.957-13.582 47.031-9.8584 100.47 0.007344 0.10466 0.039108 0.31328 0.046979 0.42048z" fill="#b62234"/>
  </g>
 </g>
</svg>
