<svg xmlns="http://www.w3.org/2000/svg" version="1.1" xmlns:xlink="http://www.w3.org/1999/xlink" width="134.177" height="134.177"><svg xmlns="http://www.w3.org/2000/svg" xml:space="preserve" width="134.177" height="134.177" viewBox="0 0 35.501 35.501"><defs><style>.fil0{fill:#495677}</style></defs><circle cx="17.75" cy="17.75" r="17.75" fill="#d7eef4" style="paint-order:stroke markers fill"></circle><g fill-rule="evenodd" clip-rule="evenodd" shape-rendering="geometricPrecision" transform="translate(-120.646 -118.062) scale(.99699)"><path fill="#fc0" stroke="#000" stroke-linejoin="round" stroke-width="1.003" d="M136.71 124.88a5.712 5.712 0 0 1 3.267 10.396c1.805.171 3.839.582 5.872 1.599 3.427 1.714 4.57-.571 4.57-.571s-1.143 10.28-7.997 10.28h-6.854s-5.712 0-5.712-5.711c0-3.427 3.427-4.57 2.285-6.854-4.57 0-4.57-3.999-4.57-3.999 1.142.571 2.559.571 3.427.172a5.735 5.735 0 0 1 5.712-5.312" image-rendering="optimizeQuality" style="paint-order:stroke markers fill"></path><ellipse cx="134.57" cy="130.16" fill="#f9f9f9" stroke-width="0" image-rendering="optimizeQuality" rx="1.578" ry="1.676" style="paint-order:markers stroke fill"></ellipse><ellipse cx="134.35" cy="130.49" fill="#28170b" stroke-width="0" image-rendering="optimizeQuality" rx=".98" ry="1.014" style="paint-order:markers stroke fill"></ellipse></g><g stroke="#000" stroke-width="4.36"><path fill="#502d16" stroke-width=".5000048" d="m21.375 10.368.649-2.99-.833-1.346c-.197-.319-.469-.613-.686-.918-.15-.21-.347-.433-.516-.643-.176-.219-.328-.462-.512-.675-.123-.141.276.077-.448-.258-.72-.334-1.517-.684-2.33-.548-.361.06-.724.124-1.083.192-.732.138-1.466.323-2.125.68-.46.248-1.064.512-1.285 1.027a7.88 7.88 0 0 0-.386 1.203l-.29 1.21c-.7-.15-1.64-.439-2.343-.582-.342-.07-.699-.126-1.05-.117-.315.009-.641.23-.245.458.568.328 1.182.627 1.785.885.83.355 1.64.773 2.49 1.078.685.246 1.36.507 2.04.76 2.127.788 4.315 1.444 6.54 1.889.75.15 1.507.28 2.27.342.353.029.901.123 1.238-.042.248-.121.107-.281-.067-.414-.472-.36-1.097-.567-1.645-.773a30.07 30.07 0 0 0-1.096-.385z"></path><path fill="none" stroke-linecap="round" stroke-width=".5000048" d="M11.685 6.881c1.112 1.107 7.948 3.522 9.796 3.018"></path></g><path fill="#ff7f2a" fill-rule="evenodd" d="M11.096 15.554c-4.555 0-4.555-3.986-4.555-3.986 1.138.57 2.55.57 3.416.171-.048 1.478 1.575 1.965 1.14 3.816z" clip-rule="evenodd" image-rendering="optimizeQuality" shape-rendering="geometricPrecision"></path><path fill="#00a" fill-rule="evenodd" d="M10.288 24.415c-.3-.003-.594.011-.876.044-.994.17-5.866 2.12-5.866 2.12-.25.263-.49.522-.722.777A17.75 17.75 0 0 0 17.75 35.5a17.75 17.75 0 0 0 14.988-8.24c-1.229-1.076-3.672-2.324-9.078-1.52-1.202.828-6.13 1.08-7.249.386-1.573-.866-4.02-1.694-6.124-1.712z" clip-rule="evenodd" image-rendering="optimizeQuality" shape-rendering="geometricPrecision" style="paint-order:stroke markers fill"></path></svg><style>@media (prefers-color-scheme: light) { :root { filter: none; } }
@media (prefers-color-scheme: dark) { :root { filter: none; } }
</style></svg>